<?xml version="1.0" encoding="utf-8"?>
<!-- Generator: Adobe Illustrator 21.1.0, SVG Export Plug-In . SVG Version: 6.00 Build 0)  -->
<svg version="1.1" id="Layer_1" xmlns="http://www.w3.org/2000/svg" xmlns:xlink="http://www.w3.org/1999/xlink" x="0px" y="0px"
	 viewBox="0 0 500 500" style="enable-background:new 0 0 500 500;" xml:space="preserve">
<style type="text/css">
	.st0{fill:#7AB3D4;}
	.st1{fill:#FFFFFF;}
	.st2{fill:#6795B0;}
</style>
<g>
	<circle class="st0" cx="249.9" cy="250" r="250"/>
	<path class="st1" d="M64.2,287.8c-1.2-10.6-0.8-21,2.3-31.2c8.6-28.1,27.2-46.4,55.4-54.4c6.1-1.7,8.6-4.3,10.6-10.2
		c12.7-38,37.8-65,75.5-78.4c48.1-17,91.8-7.5,129.2,27.2c23.4,21.7,35.8,49.1,38.2,81c0.2,2.8-0.8,6.5,1,8.1c1.8,1.5,5.3,1,8.1,1.3
		c27.2,3.3,50.5,27.2,53.3,54.5c0.6,5.9,0.1,11.7-0.3,17.5c-0.2,0.7-0.4,1.5-0.6,2.2c-5.7,28.4-31.2,49.9-60.2,50
		c-78.8,0.2-157.6,0.3-236.4-0.1c-25.2-0.1-45.5-11.2-61-31C71.1,313.6,66.3,301.2,64.2,287.8z"/>
	<path class="st2" d="M64.2,287.8c2.1,13.4,6.9,25.8,15.3,36.5c15.4,19.8,35.8,30.9,61,31c78.8,0.3,157.6,0.2,236.4,0.1
		c29-0.1,54.5-21.6,60.2-50c0.1-0.7,0.4-1.5,0.6-2.2c1.5,2.7,0.8,5.5,0.7,8.3c-0.8,12.2-4.5,23.6-11.8,33.5
		c-10.9,14.7-25.3,23.3-43.5,25.6c-4.3,0.5-8.6,0.5-13,0.5c-75.2,0-150.5,0-225.7,0c-18.5,0-35.4-4.8-50-16.3
		c-17.5-13.7-27.9-31.7-30.2-54C63.7,296.6,62.8,292.2,64.2,287.8z"/>
	<path class="st0" d="M181.3,317.2c-1.7,0-2.7,0-3.8,0c-15.6,0-31.2,0-46.8,0c-9.1,0-13.1-4-13.1-13.1c0-23.1,0-46.2,0-69.3
		c0-9.4,4-13.2,13.3-13.3c15.5,0,31,0,46.5,0c1.2,0,2.4-0.2,3.9,0.6c0,5.6,0,11.4,0,17.2c0,2.3-1.9,1.6-3.2,1.6
		c-12.4,0-24.7,0.2-37.1-0.1c-3.4-0.1-4.3,1-4.1,4.2c0.3,3.9,0.2,7.8,0,11.7c-0.1,2.3,0.7,3,3,3c7.2-0.1,14.5,0,22.4,0
		c-1.6,4.9-3,9.4-4.5,13.8c-2.2,6.1-0.6,5.2-7.3,5.3c-3.5,0-6.9,0.1-10.4,0c-2.5-0.1-3.2,0.8-3.1,3.2c0.2,4,0.2,8,0,12
		c-0.2,2.8,0.7,3.7,3.6,3.7c12.4-0.2,24.7,0,37.1-0.1c3.1,0,3.9,1,3.7,3.9C181.1,306.5,181.3,311.6,181.3,317.2z"/>
	<path class="st0" d="M301.7,221.5c1.7,0,2.7,0,3.8,0c20.9,0,41.9,0,62.8-0.1c2.8,0,3.9,0.6,3.7,3.6c-0.3,4.3-0.2,8.7,0,13
		c0.1,2.3-0.7,3-3,3c-6.3-0.1-12.6,0.1-18.9-0.1c-2.9-0.1-3.7,0.8-3.7,3.6c0.1,22.8,0.1,45.5,0.1,68.3c0,1.3,0,2.6,0,4.1
		c-6.5,0-12.6,0-18.8,0c-1-1.2-0.5-2.7-0.5-4c0-22.8-0.1-45.5,0-68.3c0-2.8-0.6-3.8-3.6-3.7c-6.3,0.2-12.6,0-18.9,0.1
		c-2.5,0.1-3.2-0.8-3.1-3.2C301.8,232.5,301.7,227.2,301.7,221.5z"/>
	<path class="st0" d="M193.9,221.5c6,0,11.6,0,17.3,0c1.4,0,2,0.6,1.9,1.9c0,0.9,0,1.7,0,2.6c0,22.4,0,44.9,0,67.3
		c0,4.3,0,4.3,4.2,4.3c12.3,0,24.5,0.1,36.8-0.1c2.7,0,3.6,0.8,3.5,3.5c-0.2,5.2-0.1,10.4-0.1,15.3c-1.2,1.1-2.4,0.8-3.4,0.8
		c-15.9,0-31.9,0-47.8,0c-8.3,0-12.5-4.1-12.5-12.4c-0.1-26.9,0-53.8,0-80.7C193.6,223.4,193.8,222.6,193.9,221.5z"/>
	<path class="st0" d="M270,317.2c0-32,0-63.6,0-95.6c6,0,11.8,0,17.7,0c1.1,0,1.6,0.6,1.6,1.6c0,0.8,0,1.5,0,2.3
		c0,29.3,0,58.6,0.1,87.8c0,3.1-0.8,4.1-4,4C280.4,317,275.4,317.2,270,317.2z"/>
</g>
</svg>
